<?xml version="1.0" standalone="no"?>
<!DOCTYPE svg PUBLIC "-//W3C//DTD SVG 20010904//EN"
 "http://www.w3.org/TR/2001/REC-SVG-20010904/DTD/svg10.dtd">
<svg version="1.0" xmlns="http://www.w3.org/2000/svg"
 width="512.000000pt" height="512.000000pt" viewBox="0 0 512.000000 512.000000"
 preserveAspectRatio="xMidYMid meet">

<g transform="translate(0.000000,512.000000) scale(0.100000,-0.100000)"
fill="#000000" stroke="none">
<path d="M1502 4933 l3 -68 95 -7 c223 -16 397 -99 485 -231 44 -67 84 -174
91 -246 l6 -57 -143 -13 c-656 -58 -1165 -276 -1526 -655 -225 -235 -352 -512
-397 -864 -21 -163 -20 -288 4 -452 58 -407 240 -729 580 -1028 113 -99 238
-180 395 -257 287 -141 554 -203 998 -231 86 -6 87 -6 87 -32 0 -44 -31 -154
-60 -212 -86 -171 -250 -265 -505 -291 l-116 -12 3 -66 3 -66 1030 0 1030 0 3
66 3 65 -115 12 c-307 32 -469 150 -545 396 -21 68 -28 136 -13 136 63 0 348
24 421 35 325 49 591 142 826 290 128 81 186 126 309 245 272 263 423 538 487
887 26 139 31 420 10 543 -60 357 -206 642 -465 909 -325 334 -751 514 -1361
576 -83 8 -169 15 -192 15 -41 0 -43 1 -43 31 0 101 67 254 148 336 99 100
243 158 431 171 l96 7 3 68 3 67 -1036 0 -1036 0 3 -67z m686 -2361 c2 -1362
0 -1533 -13 -1538 -18 -7 -222 20 -315 42 -484 113 -778 396 -906 869 -46 170
-64 334 -64 583 0 400 50 692 160 938 136 301 446 526 840 608 117 24 191 34
245 33 l50 -2 3 -1533z m877 1523 c336 -48 583 -167 774 -372 287 -307 392
-769 330 -1458 -24 -272 -102 -537 -207 -705 -137 -219 -409 -401 -717 -479
-98 -25 -327 -56 -349 -48 -15 6 -16 148 -16 1535 0 841 3 1532 7 1535 10 11
69 8 178 -8z"/>
</g>
</svg>
