<?xml version="1.0" standalone="no"?>
<!DOCTYPE svg PUBLIC "-//W3C//DTD SVG 20010904//EN"
 "http://www.w3.org/TR/2001/REC-SVG-20010904/DTD/svg10.dtd">
<svg version="1.0" xmlns="http://www.w3.org/2000/svg"
 width="2198.000000pt" height="1356.000000pt" viewBox="0 0 2198.000000 1356.000000"
 preserveAspectRatio="xMidYMid meet">

<g transform="translate(0.000000,1356.000000) scale(0.100000,-0.100000)"
fill="#000000" stroke="none">
<path d="M12 7378 l3 -6183 260 -130 c1066 -534 2125 -861 3215 -995 568 -69
1237 -78 1810 -25 748 71 1537 249 2264 512 406 147 733 286 1159 495 l287
142 0 6183 0 6183 -4500 0 -4500 0 2 -6182z m4958 1028 c144 -20 260 -41 373
-67 l87 -21 0 -226 1 -227 132 -43 c145 -48 393 -156 502 -219 l70 -40 161
159 160 159 80 -52 c425 -278 855 -713 1104 -1117 l33 -54 -158 -158 -158
-158 71 -138 c89 -176 113 -234 178 -419 l52 -150 225 -3 225 -2 21 -88 c111
-480 120 -1028 25 -1517 -8 -44 -18 -88 -20 -97 -5 -16 -25 -18 -227 -18
l-223 0 -37 -127 c-47 -158 -120 -342 -197 -498 l-58 -120 159 -161 160 -160
-109 -165 c-216 -324 -468 -601 -762 -839 -119 -96 -307 -230 -324 -230 -6 0
-80 69 -165 154 l-154 154 -51 -30 c-161 -95 -435 -217 -633 -282 l-83 -28 -2
-226 -3 -227 -125 -27 c-322 -70 -677 -98 -984 -79 -107 6 -256 21 -333 32
-127 18 -358 65 -375 76 -5 2 -8 105 -8 227 l0 224 -87 27 c-178 55 -468 184
-639 284 l-51 30 -154 -155 c-84 -85 -159 -154 -166 -154 -6 0 -62 36 -125 81
-393 281 -737 640 -985 1028 -40 62 -73 119 -73 125 0 6 70 81 156 167 l156
156 -60 119 c-86 172 -174 402 -221 582 l-12 42 -224 0 c-124 0 -225 1 -225 3
0 1 -11 58 -24 127 -46 234 -60 394 -60 680 0 321 24 549 90 838 l16 72 228 0
228 0 12 48 c24 98 115 323 197 491 l85 174 -158 158 -158 158 87 129 c278
410 628 758 1034 1028 l97 64 161 -158 160 -159 140 73 c147 77 342 159 485
204 l85 27 3 226 2 226 38 10 c125 34 374 74 587 95 101 10 635 -3 745 -18z"/>
<path d="M4288 8270 c-131 -9 -381 -42 -478 -63 l-55 -12 -5 -224 -5 -223
-140 -43 c-231 -72 -430 -159 -659 -288 l-88 -50 -157 157 -157 157 -80 -57
c-322 -230 -613 -519 -843 -838 l-72 -100 157 -157 157 -157 -67 -120 c-118
-213 -205 -419 -274 -647 l-39 -130 -224 -5 -224 -5 -17 -90 c-67 -357 -76
-792 -22 -1165 8 -58 17 -113 20 -122 5 -16 24 -18 224 -18 l219 0 15 -52 c8
-29 22 -80 30 -113 47 -182 134 -405 242 -615 41 -80 74 -150 74 -155 0 -5
-69 -78 -152 -162 l-152 -153 19 -32 c70 -120 272 -374 420 -527 160 -166 496
-451 531 -451 5 0 77 68 159 150 82 83 154 150 158 150 5 0 58 -30 119 -66
209 -126 477 -242 736 -320 l92 -27 0 -223 0 -223 55 -10 c131 -26 167 -32
285 -46 339 -43 806 -24 1128 45 l52 12 0 222 0 222 138 43 c253 78 481 179
703 311 55 33 104 60 107 60 4 0 75 -68 159 -152 179 -179 139 -176 337 -19
252 202 549 520 731 784 l68 99 -157 157 -157 158 78 154 c93 182 169 370 219
541 19 67 43 148 52 178 l17 55 220 5 220 5 17 105 c31 197 41 381 35 639 -6
253 -11 305 -48 524 l-22 127 -223 0 -223 0 -26 88 c-77 261 -188 522 -314
737 l-40 70 156 157 157 157 -59 87 c-207 301 -561 654 -865 863 l-74 51 -157
-156 -157 -156 -71 41 c-201 118 -488 242 -717 309 l-99 30 -3 224 -2 225
-123 21 c-278 49 -605 69 -859 52z m365 -242 l134 -186 13 -209 c7 -114 17
-213 21 -219 5 -6 35 -14 67 -18 251 -29 582 -134 843 -267 262 -133 459 -278
685 -504 281 -281 474 -574 617 -940 182 -466 225 -1028 117 -1530 -87 -402
-281 -804 -547 -1135 -143 -178 -387 -401 -580 -531 -43 -29 -79 -55 -81 -58
-1 -3 -56 -98 -121 -211 l-119 -205 -1189 -3 -1190 -2 -123 213 -123 212 -81
55 c-288 196 -551 464 -749 765 -88 135 -218 391 -272 539 -168 457 -208 963
-114 1446 185 949 875 1733 1799 2045 122 41 329 91 450 108 l95 13 12 179
c19 269 10 244 158 452 72 100 133 181 137 180 5 -1 68 -86 141 -189z"/>
<path d="M4448 7887 c-35 -50 -58 -92 -58 -108 0 -20 -109 -1952 -132 -2341
-2 -25 -3 -46 -2 -45 11 18 209 249 229 267 l27 25 72 -75 c39 -41 95 -103
124 -138 49 -59 52 -61 52 -35 0 15 -29 555 -65 1198 l-66 1170 -56 83 c-31
45 -59 82 -62 82 -3 -1 -32 -38 -63 -83z"/>
<path d="M4090 7240 c-401 -66 -782 -230 -1119 -483 -123 -93 -341 -304 -444
-432 -235 -291 -402 -627 -491 -985 -50 -203 -66 -317 -73 -531 -7 -213 6
-380 43 -573 135 -695 567 -1319 1168 -1685 l98 -60 57 20 c111 40 300 139
377 198 79 59 162 137 153 144 -2 2 -60 23 -128 46 -498 169 -753 389 -842
726 -28 106 -36 340 -19 580 32 451 5 644 -128 910 -24 50 -58 109 -74 133
l-29 42 33 0 c18 0 76 -7 128 -15 235 -35 438 -122 568 -242 l42 -40 0 29 c0
135 -66 362 -134 462 -15 21 -26 40 -24 41 6 5 265 -36 346 -55 163 -39 296
-108 425 -222 37 -33 69 -59 71 -57 3 4 105 2063 103 2065 -1 0 -49 -7 -107
-16z"/>
<path d="M4825 7206 c3 -28 26 -478 51 -1001 25 -522 47 -965 50 -983 l5 -32
71 61 c124 107 239 170 380 209 73 20 380 71 387 65 2 -2 -6 -16 -17 -32 -33
-47 -69 -124 -91 -197 -22 -72 -51 -229 -51 -280 0 -28 0 -28 60 27 136 126
384 221 632 243 90 8 87 12 38 -61 -78 -115 -157 -321 -184 -474 -19 -111 -21
-349 -5 -521 18 -188 15 -441 -5 -545 -71 -367 -319 -598 -838 -782 -76 -26
-138 -52 -138 -58 0 -18 115 -118 195 -170 96 -63 170 -100 292 -149 l93 -36
67 41 c113 69 184 118 283 198 539 429 879 1052 951 1739 15 144 6 501 -16
637 -116 725 -525 1359 -1135 1757 -300 196 -679 340 -1019 386 l-61 9 5 -51z"/>
<path d="M4419 5359 c-334 -402 -575 -861 -638 -1215 -54 -307 -30 -544 78
-768 91 -188 176 -290 431 -514 91 -80 177 -156 192 -170 l27 -24 29 23 c103
84 340 300 409 373 303 320 390 695 272 1176 -84 340 -310 751 -612 1114 -48
58 -92 106 -96 106 -5 0 -46 -45 -92 -101z"/>
<path d="M3470 5358 c0 -2 9 -26 19 -54 40 -104 54 -217 48 -394 -5 -172 -5
-172 -98 -590 -30 -134 -33 -159 -33 -330 -1 -184 -1 -186 32 -279 53 -152
128 -265 262 -396 l72 -70 -30 60 c-227 459 -149 1045 221 1653 32 51 57 97
57 101 0 15 -113 125 -164 160 -69 48 -179 96 -273 120 -73 19 -113 25 -113
19z"/>
<path d="M5435 5339 c-130 -32 -253 -98 -351 -191 -46 -44 -84 -83 -84 -87 0
-4 30 -57 66 -117 138 -228 232 -447 289 -668 89 -349 67 -655 -68 -959 -23
-51 -24 -56 -7 -47 27 14 149 155 199 229 102 150 143 284 143 476 1 143 -10
219 -73 500 -22 99 -47 223 -55 275 -27 185 -14 401 36 544 11 33 20 61 20 63
0 7 -37 1 -115 -18z"/>
<path d="M2872 5123 c87 -170 122 -292 139 -486 10 -109 9 -170 -5 -352 -42
-576 -7 -744 204 -955 96 -96 192 -157 353 -225 120 -50 377 -140 362 -127 -5
5 -62 47 -126 95 -361 268 -511 510 -526 847 -7 151 2 226 67 555 72 369 71
330 8 391 -132 128 -259 205 -400 244 -83 23 -81 23 -76 13z"/>
<path d="M6071 5110 c-141 -42 -255 -111 -391 -237 -70 -65 -70 -27 -5 -358
77 -388 89 -493 74 -643 -32 -315 -189 -551 -536 -807 -67 -49 -121 -91 -120
-92 2 -1 71 22 154 52 292 102 432 176 549 288 216 205 264 400 225 914 -9
104 -12 241 -8 350 6 211 30 325 100 466 24 48 38 87 33 86 -6 0 -40 -9 -75
-19z"/>
<path d="M3930 2724 c-41 -41 -104 -98 -140 -125 -78 -59 -268 -154 -400 -200
-52 -18 -97 -34 -99 -35 -2 -2 23 -50 55 -108 l59 -106 1105 0 1105 0 61 107
61 107 -91 32 c-258 88 -412 180 -560 333 l-69 72 -50 -16 c-124 -40 -221
-104 -381 -249 l-76 -69 -90 87 c-107 103 -212 174 -320 215 -44 17 -83 31
-87 31 -5 0 -42 -34 -83 -76z"/>
<path d="M9995 8391 c83 -51 98 -95 105 -319 l5 -184 283 257 c155 141 282
258 282 261 0 2 -159 4 -352 4 -348 0 -353 0 -323 -19z"/>
<path d="M10690 8145 l0 -265 485 0 485 0 0 -985 c0 -664 -3 -1000 -11 -1034
-13 -61 -43 -108 -88 -138 l-34 -23 423 0 423 0 -34 23 c-45 30 -75 77 -88
138 -8 34 -11 370 -11 1034 l0 985 411 0 c362 0 410 -2 405 -15 -23 -62 -38
-188 -34 -294 6 -140 29 -216 95 -314 118 -176 337 -282 784 -381 391 -87 540
-159 605 -291 33 -69 31 -142 -8 -226 -47 -104 -136 -165 -285 -195 -97 -21
-444 -14 -598 11 -198 31 -444 88 -602 139 -20 6 -18 -6 46 -255 41 -160 73
-264 82 -269 20 -11 295 -75 414 -96 143 -26 587 -26 725 -1 311 59 572 219
693 425 208 355 124 796 -193 1007 -142 95 -299 153 -670 251 -389 103 -466
135 -510 206 -22 37 -27 109 -9 155 14 37 56 81 99 103 67 34 144 40 534 40
l381 0 220 241 c121 133 228 252 238 265 l19 24 -2196 0 -2196 0 0 -265z"/>
<path d="M10098 6862 l-3 -1008 -25 -49 c-16 -30 -41 -60 -64 -75 l-39 -25
212 -3 c116 -1 307 -1 423 0 l213 3 -38 22 c-28 17 -46 39 -65 80 l-27 58 -3
1003 -2 1002 -290 0 -290 0 -2 -1008z"/>
<path d="M10033 4963 c21 -37 22 -47 25 -396 3 -364 -3 -452 -34 -477 -7 -7
-14 -16 -14 -21 0 -5 56 -9 125 -9 l126 0 -23 31 -23 31 0 408 0 408 23 31 23
31 -125 0 -125 0 22 -37z"/>
<path d="M12335 4955 c-37 -36 -34 -86 6 -119 48 -41 95 -31 124 24 42 82 -65
160 -130 95z"/>
<path d="M11950 4902 c0 -94 -69 -203 -138 -219 -30 -7 -38 -14 -40 -36 -3
-26 -1 -27 41 -27 l45 0 4 -222 c3 -222 3 -223 30 -269 32 -55 72 -77 155 -85
l59 -6 32 48 32 49 -58 5 c-103 9 -112 31 -112 286 l0 194 69 0 c38 0 81 -4
95 -10 l26 -10 0 60 0 60 -95 0 -95 0 0 105 0 105 -25 0 c-21 0 -25 -5 -25
-28z"/>
<path d="M12756 4878 c-13 -100 -60 -168 -133 -193 -29 -10 -39 -19 -41 -39
-3 -25 -1 -26 42 -26 l44 0 4 -222 c3 -216 4 -224 28 -267 31 -54 79 -81 157
-88 l58 -5 33 49 33 48 -59 5 c-104 9 -114 34 -120 288 l-4 192 75 0 c42 0 87
-4 101 -10 l26 -10 0 60 0 59 -97 3 -98 3 -3 103 c-2 91 -5 102 -21 102 -15 0
-20 -11 -25 -52z"/>
<path d="M14006 4878 c-13 -100 -60 -168 -133 -193 -29 -10 -39 -19 -41 -39
-3 -25 -1 -26 42 -26 l44 0 4 -222 c3 -222 3 -223 30 -269 32 -55 76 -79 157
-86 l57 -5 32 48 32 49 -59 5 c-105 9 -116 38 -116 300 l0 175 69 3 c38 2 82
-2 97 -7 l29 -10 0 59 0 59 -97 3 -98 3 -3 103 c-2 91 -5 102 -21 102 -15 0
-20 -11 -25 -52z"/>
<path d="M11390 4740 c-60 -10 -109 -32 -143 -65 -36 -34 -47 -64 -47 -124 0
-83 55 -140 190 -196 90 -37 147 -72 166 -100 14 -22 14 -27 -2 -61 -42 -89
-215 -87 -364 5 l-49 30 28 -77 c27 -76 28 -77 77 -95 72 -27 248 -20 321 12
73 32 129 96 138 155 17 112 -37 173 -214 243 -159 62 -194 104 -133 160 25
24 32 25 107 20 51 -3 97 -12 128 -25 l48 -22 -3 62 -3 62 -35 7 c-65 12 -165
17 -210 9z"/>
<path d="M10471 4725 c-72 -9 -82 -12 -68 -23 30 -25 39 -108 35 -342 -2 -190
-6 -230 -20 -259 -10 -19 -18 -36 -18 -38 0 -1 47 -3 105 -3 l105 0 -20 33
c-18 29 -20 50 -19 222 0 216 7 248 59 283 31 21 44 23 109 20 67 -3 75 -6
101 -35 42 -47 50 -90 50 -273 0 -146 -2 -170 -20 -205 -11 -22 -20 -41 -20
-42 0 -2 47 -3 105 -3 58 0 105 2 105 5 0 3 -8 18 -17 32 -15 23 -19 60 -23
253 -5 210 -7 228 -28 268 -47 88 -163 136 -268 113 -47 -11 -134 -61 -142
-83 -9 -22 -21 -3 -24 40 l-3 47 -84 -10z"/>
<path d="M12372 4726 c-82 -8 -83 -8 -65 -28 16 -18 18 -46 21 -295 3 -260 2
-277 -17 -309 l-20 -34 104 0 c58 0 105 3 105 8 0 4 -8 19 -17 32 -16 22 -19
61 -23 330 l-5 305 -83 -9z"/>
<path d="M13172 4726 c-80 -11 -82 -12 -65 -29 16 -16 19 -45 24 -245 6 -249
10 -269 70 -333 41 -44 62 -56 128 -70 73 -15 143 2 208 50 55 42 63 40 63
-16 0 -21 4 -24 23 -20 12 3 48 9 80 12 l58 7 -18 27 c-16 23 -18 58 -21 326
l-3 300 -83 -9 -82 -9 19 -38 c17 -34 18 -58 15 -231 -3 -181 -4 -195 -26
-230 -28 -45 -73 -62 -153 -56 -48 3 -65 10 -89 33 -17 16 -35 45 -40 64 -5
20 -10 136 -10 259 0 122 -3 221 -7 220 -5 0 -45 -6 -91 -12z"/>
<path d="M11373 3603 c-35 -2 -63 -7 -63 -11 0 -4 8 -19 18 -32 15 -23 17 -61
17 -442 l0 -416 -23 -31 -23 -31 111 0 110 0 -20 37 c-19 36 -20 57 -20 485
l0 448 -22 -2 c-13 -1 -51 -3 -85 -5z"/>
<path d="M13643 3603 c-35 -2 -63 -7 -63 -10 0 -4 8 -15 18 -26 15 -17 17 -55
20 -421 2 -220 0 -416 -3 -434 -3 -17 -16 -41 -27 -52 l-22 -20 117 0 118 0
-23 31 -23 31 -3 454 -3 454 -22 -2 c-12 -1 -50 -3 -84 -5z"/>
<path d="M9987 3583 c-4 -7 -47 -142 -47 -148 0 -1 18 6 40 17 28 14 69 21
140 25 l100 6 0 -359 c0 -197 -4 -376 -9 -397 -5 -22 -19 -50 -32 -63 l-22
-24 138 0 c113 0 136 2 122 13 -43 32 -47 67 -47 457 l0 370 78 0 c62 0 88 -5
124 -23 l46 -23 18 65 c9 36 19 72 22 79 3 9 -67 12 -331 12 -185 0 -338 -3
-340 -7z"/>
<path d="M15513 3538 c-30 -34 -36 -63 -19 -96 17 -33 65 -57 93 -48 64 20 84
96 38 141 -32 33 -84 34 -112 3z"/>
<path d="M10760 3307 c-116 -48 -185 -134 -211 -266 -14 -73 -1 -167 32 -232
29 -57 96 -117 169 -153 60 -28 73 -31 165 -31 66 0 119 6 155 18 52 16 58 22
92 80 20 34 35 63 34 65 -2 1 -27 -8 -57 -22 -224 -99 -406 -21 -443 192 l-5
32 254 0 255 0 0 28 c0 46 -28 139 -54 181 -33 51 -90 97 -145 116 -67 23
-175 19 -241 -8z m229 -105 c34 -27 73 -104 59 -117 -3 -3 -82 -4 -176 -3
l-170 3 13 39 c28 80 90 118 184 111 41 -3 63 -11 90 -33z"/>
<path d="M13040 3316 c-120 -27 -217 -104 -267 -213 -21 -45 -26 -71 -26 -134
0 -69 5 -88 32 -143 62 -125 160 -193 295 -203 163 -12 314 73 379 214 18 39
22 65 22 143 -1 84 -4 101 -29 149 -53 102 -143 171 -250 190 -72 13 -85 13
-156 -3z m160 -113 c39 -16 82 -58 107 -106 21 -42 29 -165 13 -221 -43 -154
-229 -207 -345 -97 -46 43 -61 73 -75 149 -13 74 -7 120 26 187 49 100 158
135 274 88z"/>
<path d="M14192 3319 c-113 -22 -219 -100 -267 -195 -27 -53 -30 -69 -30 -154
0 -114 18 -163 91 -240 63 -67 132 -100 227 -107 140 -11 278 52 349 157 44
65 58 116 58 204 0 93 -30 166 -94 231 -61 62 -111 89 -191 104 -66 12 -82 12
-143 0z m158 -119 c78 -40 124 -126 124 -235 1 -136 -72 -230 -186 -242 -95
-10 -174 34 -221 121 -18 34 -22 57 -22 141 0 88 3 105 24 138 58 94 181 127
281 77z"/>
<path d="M14950 3318 c-119 -18 -208 -87 -230 -179 -24 -100 24 -203 118 -249
51 -25 65 -40 37 -40 -18 0 -75 -55 -75 -73 1 -70 27 -80 215 -87 138 -6 166
-9 202 -28 106 -55 91 -171 -32 -235 -57 -29 -177 -35 -260 -12 -80 21 -135
74 -135 128 0 35 24 66 51 68 34 1 -31 18 -75 18 -43 1 -52 -3 -87 -38 -30
-30 -39 -47 -39 -72 0 -68 72 -141 169 -174 112 -37 306 -37 412 0 200 71 269
236 145 351 -61 56 -133 78 -266 81 -58 1 -113 2 -122 2 -11 1 -18 9 -18 21 0
21 21 29 137 51 202 38 289 215 166 336 l-45 45 83 -4 82 -3 22 50 22 50 -211
0 c-116 0 -236 -3 -266 -7z m140 -104 c72 -31 109 -135 73 -203 -25 -47 -62
-72 -116 -78 -104 -12 -197 64 -197 161 0 33 30 107 40 101 5 -3 10 0 12 5 6
18 81 40 118 35 19 -3 51 -12 70 -21z"/>
<path d="M12095 3313 c-16 -2 -49 -6 -72 -9 l-42 -5 19 -32 c18 -30 20 -52 20
-289 0 -259 -5 -301 -37 -325 -14 -11 5 -13 102 -13 112 0 117 1 103 18 -28
30 -38 93 -38 227 0 151 12 235 37 269 44 61 176 69 240 16 41 -33 55 -122 51
-306 -3 -150 -5 -165 -26 -193 l-23 -31 117 0 117 0 -24 26 c-24 25 -24 29
-29 257 -4 201 -8 237 -24 266 -79 146 -282 172 -408 53 l-28 -26 0 52 c0 36
-4 52 -12 51 -7 -1 -26 -4 -43 -6z"/>
<path d="M15565 3313 c-27 -2 -60 -5 -71 -8 -22 -5 -22 -5 -3 -42 17 -34 19
-62 19 -285 0 -201 -3 -256 -15 -285 -9 -21 -21 -41 -28 -45 -7 -4 42 -8 107
-8 l119 0 -24 26 -24 26 -3 314 c-2 239 -6 314 -15 312 -7 -1 -34 -3 -62 -5z"/>
<path d="M11680 3280 c13 -23 5 -61 -18 -87 -10 -10 -46 -52 -82 -93 -35 -41
-68 -77 -72 -80 -12 -9 235 -343 269 -363 24 -14 48 -17 108 -15 l76 3 -49 50
c-81 83 -263 324 -255 338 4 7 36 48 73 92 36 44 83 101 104 128 l38 47 -101
0 c-98 0 -101 -1 -91 -20z"/>
<path d="M10238 2179 c-171 -25 -282 -152 -249 -284 25 -98 71 -140 266 -241
156 -80 193 -106 211 -151 32 -74 -15 -150 -108 -178 -98 -29 -212 -11 -335
54 l-73 38 7 -26 c3 -14 14 -53 23 -86 l17 -60 64 -18 c190 -53 384 -21 487
80 110 107 114 254 10 352 -18 17 -109 70 -201 118 -175 90 -204 113 -213 175
-19 131 199 180 361 82 l55 -33 0 79 c0 91 8 85 -125 100 -101 11 -116 11
-197 -1z"/>
<path d="M13146 2181 c-51 -5 -57 -8 -43 -19 32 -27 38 -110 35 -494 -3 -364
-4 -374 -25 -410 l-22 -38 110 0 111 0 -21 34 c-20 32 -21 45 -21 485 l0 451
-32 -2 c-18 -1 -60 -4 -92 -7z"/>
<path d="M14243 2183 l-63 -4 23 -30 c22 -31 22 -31 22 -447 l0 -417 -23 -32
-23 -33 110 0 c61 0 111 3 111 7 0 3 -8 15 -17 26 -16 16 -18 45 -21 207 -4
210 3 252 47 294 39 37 137 47 191 19 67 -35 75 -64 78 -281 3 -180 2 -195
-17 -228 -12 -19 -21 -37 -21 -40 0 -2 50 -4 111 -4 l110 0 -23 33 c-22 31
-23 42 -28 262 -6 253 -7 260 -72 322 -40 39 -104 63 -168 63 -61 0 -104 -15
-162 -56 l-48 -34 0 190 0 190 -27 -2 c-16 -1 -56 -3 -90 -5z"/>
<path d="M20070 2185 c0 -3 8 -18 18 -32 15 -25 17 -64 17 -438 0 -401 0 -411
-21 -446 l-22 -37 57 -12 c31 -6 106 -14 166 -17 175 -9 278 27 369 128 57 63
79 130 80 234 0 103 -22 170 -79 233 -52 57 -114 88 -200 97 -82 9 -106 -2
-144 -69 -17 -31 -31 -58 -31 -60 0 -2 21 2 47 10 62 19 100 17 148 -5 80 -37
118 -106 118 -216 0 -154 -87 -247 -233 -248 -36 0 -77 5 -92 11 l-28 12 0
430 0 430 -85 0 c-47 0 -85 -2 -85 -5z"/>
<path d="M15411 2141 c33 -44 37 -101 38 -436 1 -328 -6 -409 -39 -455 l-21
-30 105 0 c58 0 106 2 106 5 0 3 -10 19 -22 36 -23 30 -23 36 -26 366 l-3 336
241 -304 c331 -419 347 -435 423 -453 l27 -6 0 422 c0 233 4 440 9 461 5 22
19 50 32 63 l22 24 -111 0 -111 0 24 -35 c32 -48 37 -108 33 -414 l-3 -254
-275 349 -276 349 -97 3 -98 3 22 -30z"/>
<path d="M10970 1901 c-86 -27 -173 -100 -209 -175 -11 -25 -25 -73 -31 -108
-43 -275 199 -473 490 -399 46 12 88 27 92 34 59 98 69 120 52 112 -103 -44
-155 -57 -220 -57 -145 0 -237 75 -263 218 l-8 44 253 0 254 0 0 33 c0 48 -25
131 -51 174 -57 92 -136 133 -254 132 -44 0 -91 -4 -105 -8z m176 -102 c31
-15 48 -32 63 -63 12 -23 21 -48 21 -54 0 -9 -46 -12 -170 -12 -193 0 -193 0
-143 78 46 70 144 93 229 51z"/>
<path d="M11827 1900 c-45 -12 -91 -34 -134 -67 l-32 -24 -7 46 c-6 46 -7 47
-37 41 -16 -3 -54 -6 -84 -6 l-54 0 23 -31 c23 -31 23 -32 26 -425 3 -382 -3
-474 -28 -474 -6 0 -10 -4 -10 -10 0 -6 42 -10 105 -10 l105 0 -17 27 c-16 25
-18 59 -18 368 0 307 2 343 18 373 58 106 244 123 323 29 46 -54 64 -105 64
-183 0 -118 -38 -191 -117 -226 -54 -24 -151 -26 -210 -4 -24 8 -43 13 -43 10
0 -2 16 -29 36 -58 40 -61 51 -66 149 -66 128 0 240 71 298 189 30 61 32 72
32 171 0 95 -3 110 -27 155 -34 64 -100 128 -160 155 -54 24 -148 33 -201 20z"/>
<path d="M16690 1895 c-164 -46 -271 -179 -272 -337 -1 -106 29 -176 106 -254
76 -76 135 -99 251 -98 159 1 273 69 342 204 25 49 28 66 28 150 0 110 -19
158 -92 240 -81 90 -235 131 -363 95z m197 -119 c26 -14 45 -25 41 -26 -4 0 4
-12 17 -26 42 -46 58 -104 53 -198 -4 -71 -9 -91 -31 -125 -97 -146 -306 -126
-375 37 -48 112 -34 229 36 303 68 73 162 85 259 35z"/>
<path d="M17580 1897 c-52 -15 -107 -46 -136 -78 l-19 -21 -5 48 c-4 39 -9 49
-22 48 -10 0 -50 -1 -88 -2 l-71 -2 23 -31 c23 -31 23 -32 26 -436 2 -382 2
-408 -16 -444 l-19 -39 104 0 104 0 -18 33 c-16 29 -18 65 -18 362 l0 330 25
44 c47 84 161 115 258 71 84 -38 125 -115 125 -230 0 -119 -45 -194 -138 -230
-43 -16 -143 -14 -192 4 -24 8 -43 13 -43 11 0 -12 74 -107 90 -115 34 -18
155 -12 216 11 71 27 155 107 184 175 42 98 43 232 1 317 -67 136 -232 213
-371 174z"/>
<path d="M18302 1895 c-41 -13 -94 -47 -138 -90 -35 -33 -63 -88 -80 -156 -44
-171 38 -341 201 -416 52 -23 73 -27 155 -27 64 -1 115 5 156 17 58 18 62 21
95 80 45 81 45 81 18 64 -45 -29 -152 -59 -214 -59 -150 -1 -243 77 -269 225
l-7 37 257 0 257 0 -7 58 c-8 68 -53 168 -92 206 -54 52 -120 76 -209 75 -44
0 -99 -6 -123 -14z m193 -96 c30 -15 49 -34 64 -64 11 -23 21 -47 21 -54 0 -8
-50 -11 -174 -11 l-175 0 9 30 c29 102 153 150 255 99z"/>
<path d="M21070 1901 c-85 -26 -173 -100 -210 -176 -47 -97 -47 -237 1 -329
32 -63 105 -131 173 -162 53 -24 74 -28 156 -28 64 -1 115 5 156 17 58 18 62
21 97 82 43 75 45 80 14 60 -48 -31 -142 -56 -213 -56 -85 -1 -146 22 -194 72
-42 44 -56 73 -68 137 l-9 52 253 0 254 0 0 33 c0 47 -25 131 -50 173 -58 92
-138 134 -255 133 -44 0 -91 -4 -105 -8z m176 -102 c31 -15 48 -32 63 -63 12
-23 21 -48 21 -54 0 -9 -46 -12 -170 -12 -191 0 -189 -1 -148 71 41 74 148
100 234 58z"/>
<path d="M12382 1893 c-64 -3 -71 -6 -58 -19 28 -28 36 -88 36 -278 0 -224 6
-253 71 -316 97 -95 244 -95 352 -1 l36 32 3 -43 c2 -32 7 -42 18 -40 8 2 45
6 81 9 l67 6 -19 31 c-17 29 -19 54 -19 330 l0 299 -37 -7 c-21 -3 -64 -6 -96
-6 l-59 0 26 -31 26 -31 0 -196 c0 -176 -2 -200 -20 -237 -26 -54 -58 -70
-139 -70 -76 0 -109 18 -138 75 -15 30 -18 68 -21 268 -3 210 -5 232 -20 230
-9 -1 -50 -4 -90 -5z"/>
<path d="M13473 1893 l-73 -4 23 -30 c21 -29 22 -42 27 -258 l5 -228 30 -49
c44 -70 108 -107 196 -112 56 -4 76 0 121 21 29 14 65 37 81 51 l27 27 0 -30
c0 -53 6 -59 53 -50 23 4 59 8 80 9 l37 0 -20 37 c-19 35 -20 57 -20 332 l0
294 -31 -7 c-17 -3 -58 -6 -91 -6 l-59 0 23 -32 c22 -32 23 -40 23 -228 0
-260 -15 -294 -138 -307 -44 -4 -64 -1 -100 16 -73 35 -80 62 -85 334 -4 203
-6 227 -21 225 -9 -1 -49 -4 -88 -5z"/>
<path d="M18898 1893 l-67 -4 22 -37 c21 -36 22 -47 22 -297 0 -251 -1 -261
-22 -297 l-22 -38 109 0 c61 0 110 3 110 7 0 3 -8 15 -17 26 -16 17 -18 45
-21 221 -3 222 2 247 61 290 39 28 149 29 190 2 55 -37 61 -64 65 -267 4 -171
2 -191 -17 -233 l-20 -46 110 0 110 0 -23 33 c-22 31 -23 39 -23 227 0 260 15
294 138 307 44 4 64 1 101 -16 70 -35 81 -73 81 -296 0 -168 -1 -183 -22 -217
l-22 -38 109 0 c61 0 110 3 110 7 0 3 -8 15 -17 26 -16 16 -19 49 -24 246 -6
233 -8 247 -53 314 -49 72 -188 108 -281 72 -25 -9 -68 -35 -96 -57 l-50 -39
-32 32 c-100 99 -252 105 -364 13 l-43 -35 0 50 c0 43 -3 51 -17 49 -10 -1
-48 -3 -85 -5z"/>
<path d="M21647 1893 l-68 -4 23 -32 c23 -31 23 -37 23 -302 0 -266 0 -270
-23 -302 l-23 -33 110 0 c61 0 111 2 111 5 0 2 -9 19 -20 37 -18 30 -20 51
-20 208 0 196 7 234 49 274 34 32 104 46 140 27 22 -12 22 -11 19 56 l-3 68
-34 3 c-47 5 -115 -23 -145 -59 l-25 -29 -7 45 c-5 34 -10 45 -23 43 -9 -1
-47 -3 -84 -5z"/>
</g>
</svg>
