<svg version="1.0" xmlns="http://www.w3.org/2000/svg" preserveAspectRatio="xMidYMid meet" viewBox="156 277 1093 361">

<g transform="translate(0.000000,1024.000000) scale(0.100000,-0.100000)" fill="#000000" stroke="none">
<path d="M3260 6778 c-222 -381 -628 -1075 -901 -1543 -273 -467 -564 -967 -647 -1109 -84 -142 -152 -260 -152 -262 0 -2 945 -4 2101 -4 1901 0 2101 1 2095 16 -3 8 -86 153 -185 322 -98 169 -375 647 -616 1062 -241 415 -533 917 -648 1115 -115 198 -304 525 -420 727 -117 202 -214 367 -217 368 -3 0 -187 -312 -410 -692z m620 -176 c61 -30 61 -46 -8 -283 -34 -117 -61 -214 -59 -215 1 -1 90 29 197 67 107 38 198 69 201 69 12 0 72 -181 63 -189 -5 -5 -115 -48 -244 -96 -291 -108 -296 -110 -309 -143 -6 -15 -44 -151 -86 -302 -42 -151 -78 -282 -81 -290 -4 -13 -4 -13 9 0 7 8 59 74 114 145 113 145 250 285 333 337 129 82 265 103 382 59 114 -44 154 -130 145 -316 -7 -147 -32 -255 -127 -535 -99 -295 -140 -451 -147 -562 -5 -83 -5 -87 20 -112 14 -14 35 -26 47 -26 40 0 106 43 191 126 88 86 122 103 132 63 15 -56 -53 -180 -142 -260 -100 -90 -237 -143 -397 -155 -187 -15 -263 44 -272 214 -6 106 3 149 89 428 109 357 199 681 212 767 9 66 9 83 -4 105 -23 41 -56 39 -126 -7 -106 -71 -369 -361 -469 -516 -107 -168 -217 -457 -308 -815 l-35 -135 -233 4 c-128 2 -234 4 -235 5 -2 1 33 121 76 267 81 269 300 1004 366 1227 20 68 35 125 33 127 -2 1 -91 -31 -198 -71 -107 -40 -198 -74 -201 -74 -11 0 -62 221 -53 229 5 4 125 47 266 96 231 78 257 90 267 114 23 56 92 289 107 362 10 43 14 88 10 104 l-7 28 -72 -6 c-96 -7 -107 0 -107 68 0 37 4 55 13 56 6 0 118 13 247 29 286 34 353 36 400 12z"/>
<path d="M6017 5693 c-4 -3 -7 -165 -7 -360 l0 -353 285 0 285 0 0 85 0 85 -172 2 -173 3 -3 273 -2 272 -103 0 c-57 0 -107 -3 -110 -7z"/>
<path d="M7360 5340 l0 -360 110 0 110 0 0 145 0 145 140 0 140 0 0 75 0 75 -140 0 -141 0 3 63 3 62 163 3 162 2 0 75 0 75 -275 0 -275 0 0 -360z"/>
<path d="M7980 5610 l0 -90 115 0 115 0 0 -270 0 -270 110 0 110 0 0 270 0 269 113 3 112 3 0 85 0 85 -337 3 -338 2 0 -90z"/>
<path d="M8757 5693 c-4 -3 -7 -33 -7 -65 l0 -58 100 0 100 0 0 65 0 65 -93 0 c-52 0 -97 -3 -100 -7z"/>
<path d="M9100 5340 l0 -360 110 0 110 0 0 145 0 144 138 3 137 3 3 73 3 72 -141 0 -140 0 0 65 0 65 160 0 160 0 0 75 0 75 -270 0 -270 0 0 -360z"/>
<path d="M9862 5673 c-10 -28 -231 -614 -251 -665 l-11 -28 114 0 113 0 17 60 17 60 128 0 128 0 17 -60 17 -60 115 0 c62 0 114 3 114 8 -1 4 -60 165 -133 357 l-132 350 -121 3 -122 3 -10 -28z m166 -282 c18 -60 35 -116 38 -125 5 -14 -5 -16 -76 -16 -62 0 -81 3 -77 13 2 6 19 63 37 125 18 61 36 112 40 112 3 0 20 -49 38 -109z"/>
<path d="M6813 5500 c-48 -11 -96 -43 -120 -80 -41 -59 -34 -66 68 -76 82 -9 92 -8 100 8 14 26 46 40 97 41 33 0 49 -5 58 -18 33 -45 18 -55 -142 -91 -65 -14 -136 -35 -156 -47 -65 -36 -88 -129 -48 -194 29 -48 86 -73 168 -73 78 0 123 12 169 46 l31 24 11 -30 10 -30 92 0 c90 0 91 0 84 23 -5 12 -11 103 -14 202 -4 99 -12 191 -18 205 -17 39 -56 70 -108 86 -51 15 -225 18 -282 4z m217 -314 c0 -100 -169 -157 -178 -60 -4 38 11 51 85 74 85 28 93 26 93 -14z"/>
<path d="M8750 5240 l0 -260 100 0 100 0 0 260 0 260 -100 0 -100 0 0 -260z"/>
<path d="M6050 4550 l0 -190 135 0 135 0 0 30 0 29 -97 3 -98 3 -3 158 -3 157 -34 0 -35 0 0 -190z"/>
<path d="M6670 4550 l0 -190 30 0 c20 0 30 5 30 15 0 19 9 19 30 0 10 -9 33 -18 53 -22 30 -4 40 0 73 29 34 32 38 41 42 97 5 70 -9 112 -46 141 -30 24 -84 26 -117 4 l-25 -16 0 66 0 66 -35 0 -35 0 0 -190z m165 15 c50 -49 25 -155 -35 -155 -38 0 -60 32 -60 90 0 47 13 73 40 83 26 9 30 8 55 -18z"/>
<path d="M8542 4708 c3 -29 7 -33 36 -36 31 -3 32 -2 32 32 0 35 -1 36 -36 36 -34 0 -35 -1 -32 -32z"/>
<path d="M9640 4550 l0 -190 35 0 35 0 0 80 0 80 80 0 80 0 0 30 0 29 -77 3 -78 3 0 45 0 45 93 3 92 3 0 29 0 30 -130 0 -130 0 0 -190z"/>
<path d="M9968 4709 c-5 -34 6 -43 44 -37 18 2 24 10 26 36 3 30 2 32 -31 32 -31 0 -35 -3 -39 -31z"/>
<path d="M10412 4708 c3 -29 6 -33 33 -33 27 0 30 4 33 33 3 31 2 32 -33 32 -35 0 -36 -1 -33 -32z"/>
<path d="M10560 4550 l0 -190 35 0 35 0 0 49 c0 32 5 53 16 62 18 15 20 13 60 -63 23 -45 27 -48 64 -48 l39 0 -50 86 -49 86 41 46 41 47 -28 6 c-37 7 -54 -1 -92 -46 -17 -19 -34 -35 -37 -35 -3 0 -5 43 -5 95 l0 95 -35 0 -35 0 0 -190z"/>
<path d="M11279 4735 c-10 -44 -4 -50 54 -53 l57 -3 0 -159 0 -160 35 0 34 0 3 158 3 157 58 3 c56 3 57 4 57 32 l0 30 -150 0 c-82 0 -150 -2 -151 -5z"/>
<path d="M12422 4708 c3 -29 6 -33 33 -33 27 0 30 4 33 33 3 31 2 32 -33 32 -35 0 -36 -1 -33 -32z"/>
<path d="M7865 4710 c-17 -11 -32 -32 -36 -47 -3 -16 -10 -27 -17 -25 -7 1 -12 -10 -12 -28 0 -20 5 -30 15 -30 12 0 15 -17 15 -92 0 -100 3 -109 39 -127 27 -15 91 -6 90 12 -1 25 -15 42 -34 42 -18 0 -20 8 -23 83 -3 82 -3 82 23 82 21 0 25 5 25 28 0 23 -4 28 -22 28 -20 -1 -24 5 -28 46 l-5 48 -30 -20z"/>
<path d="M6414 4631 c-19 -8 -60 -59 -52 -66 11 -11 57 -6 79 8 36 24 79 14 79 -18 0 -19 -8 -24 -59 -34 -77 -15 -105 -37 -105 -84 0 -68 70 -106 135 -73 22 11 36 13 43 6 5 -5 24 -10 42 -10 32 0 32 0 23 38 -5 20 -9 73 -9 118 0 69 -3 84 -20 99 -23 21 -121 31 -156 16z m106 -171 c0 -52 -77 -79 -94 -33 -8 21 10 41 48 52 46 14 46 13 46 -19z"/>
<path d="M7051 4622 c-50 -27 -73 -75 -68 -140 3 -41 10 -59 32 -82 60 -62 150 -62 210 0 39 41 47 128 15 178 -36 59 -124 79 -189 44z m119 -69 c40 -50 9 -143 -47 -143 -36 0 -73 42 -73 83 0 78 76 115 120 60z"/>
<path d="M7406 4623 c-13 -13 -20 -15 -23 -5 -3 6 -18 12 -34 12 l-29 0 0 -135 0 -135 34 0 34 0 4 96 c2 80 6 98 22 110 11 7 29 11 41 8 18 -4 24 0 29 21 4 14 4 30 1 35 -10 16 -59 11 -79 -7z"/>
<path d="M7574 4631 c-21 -9 -54 -47 -54 -62 0 -18 56 -15 82 4 23 17 31 19 53 9 45 -21 28 -44 -45 -63 -95 -25 -125 -75 -80 -132 27 -35 78 -44 120 -22 23 12 35 14 43 6 6 -6 24 -11 40 -11 28 0 29 2 23 31 -3 17 -6 69 -6 114 0 109 -13 127 -96 132 -32 1 -69 -1 -80 -6z m106 -171 c0 -51 -76 -80 -94 -35 -12 31 20 55 87 64 4 1 7 -12 7 -29z"/>
<path d="M8061 4622 c-98 -53 -94 -204 6 -253 98 -48 203 19 203 130 0 109 -112 175 -209 123z m118 -68 c42 -53 10 -144 -49 -144 -33 0 -70 44 -70 83 0 46 33 87 70 87 19 0 36 -9 49 -26z"/>
<path d="M8416 4623 c-13 -13 -20 -15 -23 -5 -3 6 -18 12 -34 12 l-29 0 0 -135 0 -135 34 0 34 0 4 96 c2 80 6 98 22 110 11 7 29 11 41 8 18 -4 24 0 29 21 4 14 4 30 1 35 -10 16 -59 11 -79 -7z"/>
<path d="M8546 4632 c-3 -3 -6 -65 -6 -139 l0 -133 35 0 35 0 0 135 c0 101 -3 135 -12 136 -7 0 -21 2 -30 4 -9 2 -19 0 -22 -3z"/>
<path d="M8690 4520 c1 -120 6 -136 47 -158 31 -17 53 -15 96 8 31 17 37 17 37 5 0 -10 11 -15 35 -15 l35 0 0 133 c0 74 -2 136 -5 139 -3 2 -18 3 -34 0 l-29 -4 -4 -93 c-4 -102 -15 -125 -57 -125 -44 0 -51 16 -51 121 l0 97 -35 4 -35 4 0 -116z"/>
<path d="M9038 4632 l-28 -3 0 -135 0 -134 34 0 34 0 4 101 c2 86 6 103 22 115 23 16 35 17 56 4 11 -7 16 -35 18 -115 l4 -105 34 0 34 0 0 91 c0 50 4 98 10 108 13 25 37 33 61 21 17 -10 19 -22 19 -115 l0 -105 35 0 35 0 0 119 c0 117 -1 120 -26 140 -34 27 -84 27 -117 1 l-26 -21 -21 21 c-24 24 -73 26 -110 5 -29 -17 -44 -19 -35 -6 7 13 -5 17 -37 13z"/>
<path d="M9970 4497 l0 -138 33 3 32 3 0 134 0 134 -33 1 -32 1 0 -138z"/>
<path d="M10145 4628 c-31 -17 -45 -39 -45 -74 0 -42 30 -66 109 -88 63 -18 77 -37 42 -56 -30 -15 -50 -12 -74 13 -16 16 -32 21 -55 19 -37 -4 -39 -10 -12 -45 27 -34 80 -51 137 -42 120 18 127 145 10 170 -18 4 -47 14 -66 21 -28 12 -31 16 -21 29 16 19 64 19 84 0 27 -28 82 -13 70 19 -15 40 -129 62 -179 34z"/>
<path d="M10428 4632 c-16 -3 -18 -18 -18 -138 l0 -134 35 0 35 0 0 134 c0 119 -2 134 -17 138 -10 2 -26 2 -35 0z"/>
<path d="M10881 4614 c-38 -32 -39 -50 -3 -57 19 -4 32 1 46 15 13 14 25 18 45 13 65 -16 52 -47 -25 -64 -73 -16 -104 -43 -104 -88 0 -64 62 -97 133 -69 26 10 43 12 45 6 2 -5 18 -10 35 -10 l32 0 -3 92 c-4 137 -8 156 -42 173 -48 25 -123 20 -159 -11z m129 -149 c0 -27 -31 -65 -53 -65 -24 0 -49 26 -45 46 2 11 17 24 38 31 51 17 60 16 60 -12z"/>
<path d="M11612 4606 c-36 -34 -37 -36 -37 -109 0 -66 3 -79 24 -101 35 -38 91 -52 140 -37 40 12 86 56 75 72 -9 15 -71 10 -78 -6 -9 -25 -63 -19 -82 10 -8 13 -13 29 -9 35 3 5 43 10 92 10 l86 0 -6 47 c-4 38 -12 54 -41 80 -29 27 -44 33 -81 33 -38 0 -52 -6 -83 -34z m116 -32 c12 -8 22 -24 22 -35 0 -16 -7 -19 -56 -19 -53 0 -55 1 -49 23 7 24 32 47 50 47 6 0 21 -7 33 -16z"/>
<path d="M11941 4622 c-50 -27 -73 -75 -68 -140 3 -41 10 -59 32 -82 60 -62 150 -62 210 0 39 41 47 128 15 178 -36 59 -124 79 -189 44z m118 -68 c12 -15 21 -41 21 -59 0 -40 -34 -85 -65 -85 -62 0 -97 90 -55 143 29 36 71 37 99 1z"/>
<path d="M12296 4623 c-13 -13 -20 -15 -23 -5 -3 6 -18 12 -34 12 l-29 0 0 -135 0 -135 34 0 34 0 4 96 c3 105 17 130 64 118 19 -5 24 -1 30 19 3 14 3 31 -1 36 -10 17 -59 13 -79 -6z"/>
<path d="M12448 4632 l-28 -3 0 -135 0 -134 35 0 35 0 0 134 c0 74 -3 136 -7 138 -5 2 -20 2 -35 0z"/>
<path d="M8395 4246 c-16 -16 -25 -36 -25 -56 0 -23 -4 -30 -20 -30 -16 0 -20 -7 -20 -30 0 -23 4 -30 20 -30 19 0 20 -7 20 -110 l0 -110 35 0 35 0 0 110 0 110 31 0 c27 0 30 3 27 28 -2 21 -9 28 -30 30 -20 2 -28 9 -28 22 0 23 26 39 52 32 17 -4 19 0 16 24 -3 26 -7 29 -45 32 -35 3 -48 -2 -68 -22z"/>
<path d="M6230 4195 c0 -69 -3 -73 -34 -50 -26 20 -86 19 -115 -1 -13 -9 -29 -32 -37 -50 -28 -68 -10 -164 37 -198 30 -20 92 -21 123 -1 21 14 24 14 29 0 4 -9 19 -15 37 -15 l30 0 0 190 0 190 -35 0 -35 0 0 -65z m-24 -106 c43 -48 14 -159 -41 -159 -36 0 -60 36 -60 90 0 54 24 90 60 90 12 0 30 -9 41 -21z"/>
<path d="M7150 4080 c0 -99 0 -183 0 -187 0 -5 15 -9 35 -11 l35 -3 0 80 0 80 78 3 77 3 3 33 3 32 -80 0 -81 0 0 45 0 44 93 3 c91 3 92 3 92 28 l0 25 -127 3 -128 3 0 -181z"/>
<path d="M7470 4230 c0 -28 3 -30 35 -30 32 0 35 2 35 30 0 28 -3 30 -35 30 -32 0 -35 -2 -35 -30z"/>
<path d="M7620 4070 l0 -190 35 0 35 0 0 190 0 190 -35 0 -35 0 0 -190z"/>
<path d="M9182 4077 c-40 -101 -72 -187 -72 -190 0 -4 17 -7 38 -7 35 0 39 3 53 43 l16 42 76 3 76 3 20 -46 c18 -41 23 -45 55 -45 20 0 36 3 36 8 1 4 -32 89 -72 189 l-73 183 -41 0 -41 0 -71 -183z m137 33 c30 -78 29 -80 -29 -80 -27 0 -50 1 -50 3 0 1 9 27 20 57 12 30 23 61 26 69 6 19 9 15 33 -49z"/>
<path d="M9530 4070 l0 -190 35 0 35 0 0 190 0 190 -35 0 -35 0 0 -190z"/>
<path d="M8868 4229 c-17 -13 -28 -30 -28 -45 0 -15 -6 -24 -15 -24 -10 0 -15 -10 -15 -30 0 -20 5 -30 15 -30 12 0 15 -16 15 -88 0 -111 12 -132 75 -132 24 0 46 4 49 8 8 13 -5 52 -16 46 -24 -15 -38 20 -38 92 0 72 1 74 25 74 21 0 25 5 25 30 0 25 -4 30 -25 30 -23 0 -25 4 -25 45 0 51 -4 53 -42 24z"/>
<path d="M6389 4130 c-33 -33 -32 -45 6 -52 16 -3 30 1 41 13 29 32 89 20 82 -17 -2 -13 -18 -22 -53 -30 -28 -6 -61 -16 -73 -23 -46 -25 -51 -97 -9 -126 28 -19 97 -19 124 0 19 13 22 13 27 0 3 -9 19 -15 40 -15 l34 0 -9 38 c-5 20 -9 73 -9 117 0 44 -4 85 -8 91 -14 22 -52 34 -107 34 -49 0 -60 -4 -86 -30z m133 -150 c-7 -49 -48 -69 -83 -41 -27 22 -16 48 25 60 47 14 62 9 58 -19z"/>
<path d="M6670 4020 l0 -140 35 0 35 0 0 95 c0 82 3 98 20 115 25 25 52 26 73 2 13 -15 17 -39 17 -115 l0 -97 36 0 36 0 -4 121 c-3 113 -5 122 -27 140 -28 23 -97 25 -125 4 -25 -19 -36 -19 -36 0 0 10 -10 15 -30 15 l-30 0 0 -140z"/>
<path d="M7470 4020 l0 -140 35 0 35 0 0 140 0 140 -35 0 -35 0 0 -140z"/>
<path d="M7779 4131 c-32 -32 -35 -47 -18 -85 12 -25 55 -47 119 -61 40 -9 54 -24 38 -42 -16 -20 -74 -16 -95 6 -13 13 -27 17 -50 14 -30 -5 -31 -7 -20 -30 16 -36 58 -53 127 -53 55 0 65 3 91 29 58 59 30 112 -75 141 -78 22 -81 24 -73 45 8 20 65 20 89 -1 14 -13 25 -15 50 -7 l33 9 -32 32 c-29 29 -37 32 -93 32 -55 0 -65 -3 -91 -29z"/>
<path d="M8085 4135 c-33 -32 -32 -52 4 -57 20 -3 32 1 40 14 16 26 67 24 81 -3 7 -11 10 -23 7 -25 -2 -3 -35 -13 -73 -23 -75 -21 -94 -39 -94 -88 0 -68 81 -99 148 -57 20 13 23 13 28 -1 4 -9 19 -15 38 -15 l31 0 -3 92 c-5 174 -14 188 -120 188 -53 0 -67 -4 -87 -25z m133 -152 c-4 -37 -49 -69 -77 -54 -37 20 -24 62 24 74 47 11 56 8 53 -20z"/>
<path d="M8559 4131 c-37 -37 -37 -48 0 -53 20 -3 35 1 45 14 28 32 91 18 84 -18 -2 -14 -19 -22 -63 -32 -95 -20 -130 -77 -84 -136 17 -21 29 -26 68 -26 25 0 56 7 68 15 19 13 22 13 27 0 3 -8 18 -15 34 -15 l28 0 -4 118 c-3 109 -5 118 -28 140 -20 18 -37 22 -85 22 -54 0 -64 -3 -90 -29z m131 -150 c0 -46 -54 -75 -84 -45 -25 24 -15 47 24 61 53 18 60 16 60 -16z"/>
<path d="M9701 4134 c-39 -32 -39 -51 -2 -56 20 -3 35 1 45 14 19 22 59 24 76 3 21 -25 5 -40 -57 -53 -69 -14 -103 -43 -103 -88 0 -65 91 -100 153 -59 22 14 25 14 30 0 4 -9 19 -15 38 -15 28 0 31 3 25 23 -3 12 -6 64 -6 115 0 85 -2 95 -25 117 -20 21 -34 25 -84 25 -49 0 -65 -4 -90 -26z m129 -153 c0 -45 -54 -75 -84 -46 -25 25 -19 45 17 60 51 23 67 19 67 -14z"/>
<path d="M9970 4020 l0 -140 35 0 35 0 0 84 c0 102 10 133 46 142 43 11 54 -14 54 -128 l0 -98 35 0 35 0 0 95 c0 82 3 98 20 115 23 23 43 25 58 7 6 -7 13 -58 14 -113 l3 -99 35 0 35 0 3 75 c6 149 -16 200 -87 200 -22 0 -48 -8 -62 -19 -24 -19 -25 -19 -48 0 -28 23 -83 25 -115 4 -21 -14 -24 -14 -29 0 -4 9 -19 15 -37 15 l-30 0 0 -140z"/>
</g>
</svg>